<?xml version="1.0" encoding="UTF-8"?>
<svg width="200" height="200" viewBox="0 0 200 200" fill="none" xmlns="http://www.w3.org/2000/svg">
    <rect width="200" height="200" rx="100" fill="#e0e0e0"/>
    <path d="M100 50C82.33 50 68 64.33 68 82C68 99.67 82.33 114 100 114C117.67 114 132 99.67 132 82C132 64.33 117.67 50 100 50ZM100 106C88.95 106 80 97.05 80 86C80 74.95 88.95 66 100 66C111.05 66 120 74.95 120 86C120 97.05 111.05 106 100 106Z" fill="#757575"/>
    <path d="M100 114C70.63 114 46.67 137.96 46.67 167.33C46.67 169.24 48.26 170.83 50.17 170.83H149.83C151.74 170.83 153.33 169.24 153.33 167.33C153.33 137.96 129.37 114 100 114Z" fill="#757575"/>
</svg>
